<svg xmlns="http://www.w3.org/2000/svg" viewBox="0 0 217.26 17.85"><defs><style>.cls-1{fill:#373435;fill-rule:evenodd;}.cls-2{fill:#fefefe;}.cls-3{fill:#606062;}</style></defs><g id="Layer_2" data-name="Layer 2"><g id="Layer_1-2" data-name="Layer 1"><g id="Layer_1-3" data-name="Layer_1"><path class="cls-1" d="M150.66,0h25.26A1.09,1.09,0,0,1,177,1.08V16.77a1.08,1.08,0,0,1-1.09,1.08H150.66a1.08,1.08,0,0,1-1.09-1.08V1.08A1.09,1.09,0,0,1,150.66,0Z"/><path class="cls-2" d="M159.37,2.41h.46V6.15h-.72A2.64,2.64,0,0,0,158.27,4a4,4,0,0,0-2.51-.66H155c-.07.71-.1,1.35-.1,1.91a3.85,3.85,0,0,0,.65,2.48,2.56,2.56,0,0,0,2.1.79h.95v.68l-3.6.08v5.65h1a3.39,3.39,0,0,0,3.77-3.14h.7l-.8,4h-.48c0-.28-.13-.42-.38-.42h-7.14v-.47a1.58,1.58,0,0,0,1.18-.33,1.77,1.77,0,0,0,.31-1.22V4.92a1.68,1.68,0,0,0-.34-1.25,1.93,1.93,0,0,0-1.15-.31V2.9h7q.64,0,.66-.48h0Z"/><path class="cls-2" d="M161.33,2.89H169a5.38,5.38,0,0,1,3.87,1.23,4.93,4.93,0,0,1,1.29,3.71,7.52,7.52,0,0,1-2.09,5.36,7.35,7.35,0,0,1-5.63,2.21h-5.13v-.46a1.62,1.62,0,0,0,1.18-.34,1.74,1.74,0,0,0,.31-1.21V4.92a1.72,1.72,0,0,0-.33-1.25,1.82,1.82,0,0,0-1.16-.3V2.9Zm3.28,1.19v9.77a6.15,6.15,0,0,0,3.06.91,4.15,4.15,0,0,0,3.38-1.58,6.23,6.23,0,0,0,1.29-4.08A7.1,7.1,0,0,0,171.21,5a4.24,4.24,0,0,0-3.76-1.62,5,5,0,0,0-2.84.75Z"/><path class="cls-3" d="M180.81.65a2.11,2.11,0,0,0-1.56.49,2.81,2.81,0,0,0-.39,1.74V15q0,2.14,1.95,2.22v.66h-6.29v-.66a2,2,0,0,0,1.55-.48,2.76,2.76,0,0,0,.4-1.74V2.88A2.58,2.58,0,0,0,176,1.09a2.33,2.33,0,0,0-1.52-.44V0h6.29V.65Z"/><path class="cls-3" d="M181.14,2.45h.44c.08.29.21.44.38.44h8.56c.22,0,.33-.15.33-.44h.44V6.18h-.71c0-1.88-1-2.83-3-2.83h-.52v10A1.38,1.38,0,0,0,188.58,15v.46h-4.76V15a1.66,1.66,0,0,0,1.17-.34,1.77,1.77,0,0,0,.31-1.22v-10h-.68c-1.82,0-2.77.94-2.83,2.83h-.66V2.46Z"/><path class="cls-3" d="M199.16,2.61a6.3,6.3,0,0,1,2.91.64,6,6,0,0,1,2.21,2,5.66,5.66,0,0,1,.94,3.29,6.64,6.64,0,0,1-1.17,3.81,7.63,7.63,0,0,1-2.75,2.53,7.15,7.15,0,0,1-3.29.79,5.71,5.71,0,0,1-4.19-1.7,5.65,5.65,0,0,1-1.72-4.2,6.89,6.89,0,0,1,2.15-5,6.77,6.77,0,0,1,4.91-2.12Zm-1.22.9a3.91,3.91,0,0,0-3,1.27,4.7,4.7,0,0,0-1.19,3.35A6.65,6.65,0,0,0,195.55,13a5.43,5.43,0,0,0,3.9,1.81,3.84,3.84,0,0,0,2.9-1.28,4.52,4.52,0,0,0,1.22-3.27,8,8,0,0,0-.81-3.51,5.69,5.69,0,0,0-2.21-2.45A5.25,5.25,0,0,0,197.94,3.51Z"/><path class="cls-3" d="M206.53,2.89h6.2a3.38,3.38,0,0,1,2.08.54A1.94,1.94,0,0,1,215.5,5a3.68,3.68,0,0,1-.78,2.25,7.51,7.51,0,0,1-2.33,1.94l2.17,3.38c1,1.51,1.88,2.29,2.7,2.33v.47h-2.34a1.52,1.52,0,0,1-1.24-.85l-3.87-6v4.85A1.38,1.38,0,0,0,211.3,15v.46h-4.77V15a1.67,1.67,0,0,0,1.18-.34,1.76,1.76,0,0,0,.31-1.22V4.93a1.7,1.7,0,0,0-.33-1.25,1.87,1.87,0,0,0-1.16-.31V2.89Zm3.28.95V7.92a3.49,3.49,0,0,0,2,.83,1.45,1.45,0,0,0,1.28-.59,2.88,2.88,0,0,0,.43-1.74,3.59,3.59,0,0,0-.63-2.24,1.9,1.9,0,0,0-1.55-.84,2.66,2.66,0,0,0-1.51.49Z"/><path class="cls-3" d="M0,1.5H11.53V4.74H4.68V7.38h5.85v3.05H4.68v6.16H0Z"/><path class="cls-3" d="M14.1,1.5H21a8.29,8.29,0,0,1,3.31.56,5.35,5.35,0,0,1,2.09,1.59,6.53,6.53,0,0,1,1.19,2.42A11.15,11.15,0,0,1,28,9a10.09,10.09,0,0,1-.55,3.75A6,6,0,0,1,25.91,15a5,5,0,0,1-2.1,1.2,10.57,10.57,0,0,1-2.78.41H14.1Zm4.67,3.42v8.24h1.14A4.74,4.74,0,0,0,22,12.84a2.2,2.2,0,0,0,1-1.13,7.18,7.18,0,0,0,.35-2.62,5.12,5.12,0,0,0-.78-3.29,3.32,3.32,0,0,0-2.6-.88Z"/><path class="cls-3" d="M30.51,1.5h6.93a8.35,8.35,0,0,1,3.31.56,5.39,5.39,0,0,1,2.08,1.59A6.53,6.53,0,0,1,44,6.07,11.15,11.15,0,0,1,44.4,9a10.07,10.07,0,0,1-.56,3.75A6.1,6.1,0,0,1,42.32,15a5.1,5.1,0,0,1-2.1,1.2,10.62,10.62,0,0,1-2.78.41H30.51Zm4.66,3.42v8.24h1.14a4.74,4.74,0,0,0,2.08-.32,2.16,2.16,0,0,0,1-1.13,7.18,7.18,0,0,0,.35-2.62,5.12,5.12,0,0,0-.78-3.29,3.32,3.32,0,0,0-2.6-.88Z"/><path class="cls-3" d="M63.93,10.42,68,11.65a7.37,7.37,0,0,1-1.29,2.87,5.65,5.65,0,0,1-2.2,1.74,8.09,8.09,0,0,1-3.34.59,9.82,9.82,0,0,1-4-.71,6.45,6.45,0,0,1-2.7-2.52A8.58,8.58,0,0,1,53.33,9a7.89,7.89,0,0,1,2-5.76,7.59,7.59,0,0,1,5.64-2A7.67,7.67,0,0,1,65.45,2.4a6.79,6.79,0,0,1,2.42,3.54l-4.12.91a3.47,3.47,0,0,0-.45-1,2.7,2.7,0,0,0-1-.82,2.79,2.79,0,0,0-1.27-.29A2.73,2.73,0,0,0,58.65,6,5.37,5.37,0,0,0,58,9a5.64,5.64,0,0,0,.76,3.44,3,3,0,0,0,4.16.18A4.66,4.66,0,0,0,63.93,10.42Z"/><path class="cls-3" d="M69.69,9.06A7.79,7.79,0,0,1,71.75,3.3a7.77,7.77,0,0,1,5.74-2.06,7.88,7.88,0,0,1,5.8,2,7.59,7.59,0,0,1,2,5.66,9.33,9.33,0,0,1-.89,4.34,6.35,6.35,0,0,1-2.57,2.64,8.47,8.47,0,0,1-4.2.94A9.65,9.65,0,0,1,73.45,16a6.36,6.36,0,0,1-2.72-2.58A8.55,8.55,0,0,1,69.69,9.06Zm4.67,0a5,5,0,0,0,.85,3.28,3.2,3.2,0,0,0,4.63,0,5.56,5.56,0,0,0,.83-3.51,4.66,4.66,0,0,0-.86-3.11,2.94,2.94,0,0,0-2.33-1,2.86,2.86,0,0,0-2.27,1A5.1,5.1,0,0,0,74.36,9.08Z"/><path class="cls-3" d="M87.87,1.5h4.36l5.68,8.35V1.5h4.4V16.59h-4.4L92.26,8.31v8.28H87.87Z"/><path class="cls-3" d="M105.43,1.5H117V4.74h-6.85V7.38H116v3.05h-5.85v6.16h-4.68Z"/><path class="cls-3" d="M119.66,1.5h4.67V16.59h-4.67Z"/><path class="cls-3" d="M135.27,11.13V8h7.2v6.43a14.8,14.8,0,0,1-3.66,1.92,12.41,12.41,0,0,1-3.77.51,9.07,9.07,0,0,1-4.38-.92A6.29,6.29,0,0,1,128,13.21a9,9,0,0,1-.93-4.16,8.68,8.68,0,0,1,1-4.3,6.67,6.67,0,0,1,3-2.78,9.83,9.83,0,0,1,4.13-.73A11.37,11.37,0,0,1,139,1.7,5,5,0,0,1,141,3.1a6.42,6.42,0,0,1,1.23,2.42l-4.5.8A2.47,2.47,0,0,0,136.83,5a3,3,0,0,0-1.7-.45,3,3,0,0,0-2.44,1.06A5.14,5.14,0,0,0,131.78,9a5.26,5.26,0,0,0,.92,3.5,3.23,3.23,0,0,0,2.57,1.05,4.89,4.89,0,0,0,1.49-.23,8.56,8.56,0,0,0,1.63-.77V11.13Z"/></g></g></g></svg>