<svg xmlns="http://www.w3.org/2000/svg" viewBox="0 0 217.54 17.86"><defs><style>.cls-1{fill:#373435;fill-rule:evenodd;}.cls-2{fill:#fefefe;}.cls-3{fill:#fff;}</style></defs><g id="Layer_2" data-name="Layer 2"><g id="Layer_1-2" data-name="Layer 1"><g id="Layer_1-3" data-name="Layer_1"><g id="_2903511949296" data-name=" 2903511949296"><path class="cls-1" d="M150.94,0h25.27a1.08,1.08,0,0,1,1.08,1.08V16.77a1.08,1.08,0,0,1-1.08,1.09H150.94a1.09,1.09,0,0,1-1.08-1.09V1.08A1.09,1.09,0,0,1,150.94,0Z"/><path class="cls-2" d="M159.65,2.41h.47V6.15h-.72A2.64,2.64,0,0,0,158.55,4a3.93,3.93,0,0,0-2.5-.66h-.74c-.06.71-.09,1.35-.09,1.91a3.85,3.85,0,0,0,.65,2.48,2.54,2.54,0,0,0,2.09.79h1v.68l-3.61.08v5.65h1a3.39,3.39,0,0,0,3.77-3.14h.7l-.8,4h-.48c0-.29-.14-.43-.38-.43H152v-.46a1.68,1.68,0,0,0,1.18-.33,1.8,1.8,0,0,0,.31-1.23V4.91a1.68,1.68,0,0,0-.34-1.25A1.93,1.93,0,0,0,152,3.35V2.89h7q.65,0,.66-.48Z"/><path class="cls-2" d="M161.62,2.89h7.69a5.4,5.4,0,0,1,3.87,1.23,4.93,4.93,0,0,1,1.28,3.71,7.48,7.48,0,0,1-2.09,5.36,7.35,7.35,0,0,1-5.63,2.21h-5.12v-.46a1.61,1.61,0,0,0,1.17-.34,1.76,1.76,0,0,0,.31-1.22V4.92a1.7,1.7,0,0,0-.33-1.25,1.86,1.86,0,0,0-1.15-.31V2.9Zm3.28,1.19v9.77a6.11,6.11,0,0,0,3,.91,4.14,4.14,0,0,0,3.39-1.58,6.23,6.23,0,0,0,1.28-4.08A7.1,7.1,0,0,0,171.5,5a4.26,4.26,0,0,0-3.76-1.62,5,5,0,0,0-2.84.75Z"/><path class="cls-2" d="M181.1.65a2.13,2.13,0,0,0-1.56.49,2.74,2.74,0,0,0-.4,1.74V15c0,1.43.66,2.17,2,2.22v.66h-6.3v-.66a2,2,0,0,0,1.56-.49,2.77,2.77,0,0,0,.4-1.73V2.88a2.58,2.58,0,0,0-.44-1.79,2.36,2.36,0,0,0-1.53-.44V0h6.3V.65Z"/><path class="cls-2" d="M181.43,2.45h.44c.08.29.21.44.38.44h8.55c.23,0,.33-.15.33-.44h.44V6.18h-.7c0-1.88-1-2.83-3-2.83h-.53v10A1.38,1.38,0,0,0,188.86,15v.46H184.1V15a1.67,1.67,0,0,0,1.18-.34,1.84,1.84,0,0,0,.3-1.22v-10h-.67c-1.83,0-2.77.95-2.83,2.83h-.66V2.46Z"/><path class="cls-2" d="M199.45,2.61a6.29,6.29,0,0,1,2.9.64,6.14,6.14,0,0,1,2.22,2,5.64,5.64,0,0,1,.94,3.29,6.62,6.62,0,0,1-1.18,3.8,7.39,7.39,0,0,1-2.75,2.53,7.16,7.16,0,0,1-3.28.8,5.86,5.86,0,0,1-5.92-5.91,6.82,6.82,0,0,1,2.16-5,6.75,6.75,0,0,1,4.91-2.13Zm-1.23.9a3.91,3.91,0,0,0-3,1.27,4.74,4.74,0,0,0-1.18,3.35A6.64,6.64,0,0,0,195.83,13a5.39,5.39,0,0,0,3.9,1.81,3.89,3.89,0,0,0,2.91-1.27,4.54,4.54,0,0,0,1.21-3.27A7.8,7.8,0,0,0,203,6.77a5.6,5.6,0,0,0-2.21-2.46,5.33,5.33,0,0,0-2.61-.8Z"/><path class="cls-2" d="M206.81,2.89H213a3.34,3.34,0,0,1,2.08.54A1.91,1.91,0,0,1,215.78,5,3.68,3.68,0,0,1,215,7.29a7.53,7.53,0,0,1-2.33,1.94l2.17,3.37q1.47,2.28,2.7,2.34v.46h-2.33a1.51,1.51,0,0,1-1.24-.84l-3.87-6v4.84A1.38,1.38,0,0,0,211.58,15v.46h-4.76V15a1.62,1.62,0,0,0,1.17-.34,1.77,1.77,0,0,0,.31-1.22V4.93A1.7,1.7,0,0,0,208,3.68a1.82,1.82,0,0,0-1.15-.31V2.89Zm3.28.95V7.93a3.57,3.57,0,0,0,2,.82,1.5,1.5,0,0,0,1.29-.58,2.9,2.9,0,0,0,.43-1.74,3.6,3.6,0,0,0-.64-2.25,1.9,1.9,0,0,0-1.55-.83,2.67,2.67,0,0,0-1.51.48Z"/></g></g><path class="cls-3" d="M0,1.38H11.53V4.62H4.68V7.26h5.85v3.05H4.68v6.16H0Z"/><path class="cls-3" d="M14.1,1.38H21a8.29,8.29,0,0,1,3.31.56,5.35,5.35,0,0,1,2.09,1.59A6.53,6.53,0,0,1,27.62,6,11.15,11.15,0,0,1,28,8.88a10.09,10.09,0,0,1-.55,3.75,6,6,0,0,1-1.53,2.23,5,5,0,0,1-2.1,1.2,10.57,10.57,0,0,1-2.78.41H14.1ZM18.77,4.8v8.25h1.14A4.71,4.71,0,0,0,22,12.72a2.16,2.16,0,0,0,1-1.13A7.18,7.18,0,0,0,23.31,9a5.12,5.12,0,0,0-.78-3.29,3.32,3.32,0,0,0-2.6-.88Z"/><path class="cls-3" d="M30.51,1.38h6.93a8.35,8.35,0,0,1,3.31.56,5.39,5.39,0,0,1,2.08,1.59A6.53,6.53,0,0,1,44,6a11.15,11.15,0,0,1,.38,2.93,10.07,10.07,0,0,1-.56,3.75,6.1,6.1,0,0,1-1.52,2.23,5.1,5.1,0,0,1-2.1,1.2,10.62,10.62,0,0,1-2.78.41H30.51ZM35.17,4.8v8.25h1.14a4.71,4.71,0,0,0,2.08-.33,2.12,2.12,0,0,0,1-1.13A7.18,7.18,0,0,0,39.71,9a5.12,5.12,0,0,0-.78-3.29,3.32,3.32,0,0,0-2.6-.88Z"/><path class="cls-3" d="M63.93,10.3,68,11.53a7.48,7.48,0,0,1-1.29,2.88,5.84,5.84,0,0,1-2.2,1.74,8.27,8.27,0,0,1-3.34.58,9.82,9.82,0,0,1-4-.71,6.45,6.45,0,0,1-2.7-2.52,8.58,8.58,0,0,1-1.13-4.61,7.86,7.86,0,0,1,2-5.75,7.56,7.56,0,0,1,5.64-2,7.67,7.67,0,0,1,4.49,1.16,6.83,6.83,0,0,1,2.42,3.54l-4.12.91a3.27,3.27,0,0,0-.45-1,2.63,2.63,0,0,0-1-.83,2.79,2.79,0,0,0-1.27-.29,2.73,2.73,0,0,0-2.42,1.28,5.37,5.37,0,0,0-.64,3,5.64,5.64,0,0,0,.76,3.44,3,3,0,0,0,4.16.18A4.66,4.66,0,0,0,63.93,10.3Z"/><path class="cls-3" d="M69.69,8.94a7.81,7.81,0,0,1,2.06-5.76,7.77,7.77,0,0,1,5.74-2.06,7.88,7.88,0,0,1,5.8,2,7.61,7.61,0,0,1,2,5.66,9.3,9.3,0,0,1-.89,4.34,6.35,6.35,0,0,1-2.57,2.64,8.47,8.47,0,0,1-4.2.94,9.65,9.65,0,0,1-4.22-.81,6.36,6.36,0,0,1-2.72-2.58A8.55,8.55,0,0,1,69.69,8.94Zm4.67,0a5,5,0,0,0,.85,3.28,3.2,3.2,0,0,0,4.63,0,5.56,5.56,0,0,0,.83-3.51,4.66,4.66,0,0,0-.86-3.11,2.93,2.93,0,0,0-2.33-1,2.86,2.86,0,0,0-2.27,1A5.1,5.1,0,0,0,74.36,9Z"/><path class="cls-3" d="M87.87,1.38h4.36l5.68,8.35V1.38h4.4V16.47h-4.4L92.26,8.19v8.28H87.87Z"/><path class="cls-3" d="M105.43,1.38H117V4.62h-6.85V7.26H116v3.05h-5.85v6.16h-4.68Z"/><path class="cls-3" d="M119.66,1.38h4.67V16.47h-4.67Z"/><path class="cls-3" d="M135.27,11V7.87h7.2V14.3a14.8,14.8,0,0,1-3.66,1.92,12.41,12.41,0,0,1-3.77.51,9.19,9.19,0,0,1-4.38-.91A6.26,6.26,0,0,1,128,13.09a9,9,0,0,1-.93-4.16,8.68,8.68,0,0,1,1-4.3,6.67,6.67,0,0,1,3-2.78,9.83,9.83,0,0,1,4.13-.73,11.37,11.37,0,0,1,3.74.46A5,5,0,0,1,141,3a6.42,6.42,0,0,1,1.23,2.42l-4.5.8a2.47,2.47,0,0,0-.94-1.31,3,3,0,0,0-1.7-.45,3,3,0,0,0-2.44,1.06,5.14,5.14,0,0,0-.91,3.38,5.26,5.26,0,0,0,.92,3.5,3.23,3.23,0,0,0,2.57,1,4.89,4.89,0,0,0,1.49-.23,8.56,8.56,0,0,0,1.63-.77V11Z"/></g></g></svg>